<?xml version="1.0" encoding="UTF-8" standalone="no"?><!DOCTYPE svg PUBLIC "-//W3C//DTD SVG 1.1//EN" "http://www.w3.org/Graphics/SVG/1.1/DTD/svg11.dtd"><svg width="100%" height="100%" viewBox="0 0 512 512" version="1.1" xmlns="http://www.w3.org/2000/svg" xmlns:xlink="http://www.w3.org/1999/xlink" xml:space="preserve" xmlns:serif="http://www.serif.com/" style="fill-rule:evenodd;clip-rule:evenodd;stroke-linejoin:round;stroke-miterlimit:2;"><path d="M12.717,325.228c-0.079,-1.76 -0.119,-3.529 -0.119,-5.308l0,-187.876c0,-64.437 52.315,-116.751 116.751,-116.751l253.301,0c64.437,0 116.751,52.315 116.751,116.751l0,187.876c0,64.437 -52.315,116.751 -116.751,116.751l-253.301,0c-0.481,0 -0.961,-0.003 -1.441,-0.009l-90.564,57.533c-4.961,3.152 -11.244,3.351 -16.395,0.521c-5.151,-2.83 -8.352,-8.241 -8.352,-14.118l0,-155.426l0.119,0.056Zm29.881,2.668l-0,127.42l69.224,-43.976c4.914,-3.121 10.629,-4.746 16.45,-4.675c0.359,0.004 0.718,0.007 1.077,0.007l253.301,0c47.879,0 86.751,-38.872 86.751,-86.751l0,-187.876c0,-47.879 -38.872,-86.751 -86.751,-86.751l-253.301,0c-47.879,0 -86.751,38.872 -86.751,86.751l-0,187.876c0,1.329 0.03,2.65 0.089,3.964c0.06,1.346 0.03,2.686 -0.089,4.012Z" style="fill:#7545ff;"/><path d="M198.942,236.639l-87.181,84.256c-3.814,3.686 -8.937,5.707 -14.241,5.616c-5.304,-0.09 -10.354,-2.284 -14.041,-6.099l-0.14,-0.145c-3.686,-3.814 -5.707,-8.937 -5.616,-14.241c0.09,-5.304 2.284,-10.354 6.099,-14.041l100.279,-96.915c3.833,-3.705 8.981,-5.735 14.311,-5.644c0.29,0.005 0.579,0.016 0.867,0.034c0.462,-0.028 0.926,-0.04 1.392,-0.036c5.331,0.048 10.424,2.212 14.159,6.015l51.534,52.472l86.961,-85.096l-21.878,0.6c-10.284,0.282 -18.85,-7.826 -19.132,-18.111l-0,-0.003c-0.282,-10.284 7.826,-18.85 18.111,-19.132l63.979,-1.754c10.284,-0.282 18.85,7.826 19.132,18.111l0,0.003c0.015,0.538 0.007,1.071 -0.024,1.599l1.927,63.507c0.312,10.283 -7.771,18.873 -18.055,19.185l-0.003,0c-10.283,0.312 -18.873,-7.771 -19.185,-18.055l-0.414,-13.634l-87.653,85.772c-1.918,1.877 -8.816,7.791 -10.308,9.256l-0.144,0.141c-3.785,3.717 -8.891,5.778 -14.195,5.73c-5.304,-0.048 -10.372,-2.201 -14.089,-5.986l-52.453,-53.408Z" style="fill:#7545ff;"/></svg>